# xmcd
#
# Track frame offsets: 
#        150
#        49905
#        53821
#        88898
#        97853
#        116543
#        159815
#        192008
#
# Disc length: 2757 seconds
#
# Revision: 0
# Processed by: cddbd v1.5.2PL0 Copyright (c) Steve Scherf et al.
# Submitted via: ExactAudioCopy v0.95b3
#
DISCID=5a0ac308
DTITLE=Cactus  - Memphis Mess - 1971-07-04
DYEAR=1900
DGENRE=
TTITLE0=Big Mama Boogie (incl. Shake Your Moneymaker\\Hound Dog\\Shake
TTITLE0=Rattle n' Roll)
TTITLE1=Band introductions
TTITLE2=Feel So Good
TTITLE3=Oleo
TTITLE4=Big Mama Boogie (incl. Shake Your Moneymaker\\Bye Bye Baby?)
TTITLE5=Long Tall Sally
TTITLE6=Parchman Farm
TTITLE7=Mellow Down Easy
EXTD=
EXTT0=
EXTT1=
EXTT2=
EXTT3=
EXTT4=
EXTT5=
EXTT6=
EXTT7=
PLAYORDER=
